<mxfile host="app.diagrams.net" modified="2023-10-09T05:10:34.555Z" agent="Mozilla/5.0 (Windows NT 10.0; Win64; x64; rv:109.0) Gecko/20100101 Firefox/117.0" etag="poPeWj5epfFmyxyJiY1z" version="21.6.1" type="github">
  <diagram name="Page-1" id="74e2e168-ea6b-b213-b513-2b3c1d86103e">
    <mxGraphModel dx="934" dy="487" grid="1" gridSize="10" guides="1" tooltips="1" connect="1" arrows="1" fold="1" page="1" pageScale="1" pageWidth="1100" pageHeight="850" background="none" math="0" shadow="0">
      <root>
        <mxCell id="0" />
        <mxCell id="1" parent="0" />
        <mxCell id="zIbCqtiuz_F9VSP3WcJ4-26" value="" style="edgeStyle=orthogonalEdgeStyle;rounded=0;orthogonalLoop=1;jettySize=auto;html=1;" edge="1" parent="1" source="zIbCqtiuz_F9VSP3WcJ4-7" target="zIbCqtiuz_F9VSP3WcJ4-25">
          <mxGeometry relative="1" as="geometry" />
        </mxCell>
        <mxCell id="zIbCqtiuz_F9VSP3WcJ4-39" style="edgeStyle=orthogonalEdgeStyle;rounded=0;orthogonalLoop=1;jettySize=auto;html=1;exitX=1;exitY=0.5;exitDx=0;exitDy=0;entryX=0;entryY=0.5;entryDx=0;entryDy=0;" edge="1" parent="1" source="zIbCqtiuz_F9VSP3WcJ4-7" target="zIbCqtiuz_F9VSP3WcJ4-8">
          <mxGeometry relative="1" as="geometry" />
        </mxCell>
        <mxCell id="zIbCqtiuz_F9VSP3WcJ4-7" value="Klien" style="rounded=1;whiteSpace=wrap;html=1;" vertex="1" parent="1">
          <mxGeometry x="410" y="10" width="120" height="60" as="geometry" />
        </mxCell>
        <mxCell id="zIbCqtiuz_F9VSP3WcJ4-44" style="edgeStyle=orthogonalEdgeStyle;rounded=0;orthogonalLoop=1;jettySize=auto;html=1;entryX=1;entryY=0.5;entryDx=0;entryDy=0;" edge="1" parent="1" source="zIbCqtiuz_F9VSP3WcJ4-8">
          <mxGeometry relative="1" as="geometry">
            <mxPoint x="529.9999999999998" y="169.9999999999999" as="targetPoint" />
            <Array as="points">
              <mxPoint x="740" y="170" />
            </Array>
          </mxGeometry>
        </mxCell>
        <mxCell id="zIbCqtiuz_F9VSP3WcJ4-8" value="Walk In Customer" style="rounded=1;whiteSpace=wrap;html=1;" vertex="1" parent="1">
          <mxGeometry x="680" y="10" width="120" height="60" as="geometry" />
        </mxCell>
        <mxCell id="zIbCqtiuz_F9VSP3WcJ4-28" value="" style="edgeStyle=orthogonalEdgeStyle;rounded=0;orthogonalLoop=1;jettySize=auto;html=1;" edge="1" parent="1" source="zIbCqtiuz_F9VSP3WcJ4-25" target="zIbCqtiuz_F9VSP3WcJ4-27">
          <mxGeometry relative="1" as="geometry" />
        </mxCell>
        <mxCell id="zIbCqtiuz_F9VSP3WcJ4-25" value="Member" style="whiteSpace=wrap;html=1;rounded=1;" vertex="1" parent="1">
          <mxGeometry x="100" y="10" width="120" height="60" as="geometry" />
        </mxCell>
        <mxCell id="zIbCqtiuz_F9VSP3WcJ4-30" value="" style="edgeStyle=orthogonalEdgeStyle;rounded=0;orthogonalLoop=1;jettySize=auto;html=1;" edge="1" parent="1" source="zIbCqtiuz_F9VSP3WcJ4-27" target="zIbCqtiuz_F9VSP3WcJ4-29">
          <mxGeometry relative="1" as="geometry" />
        </mxCell>
        <mxCell id="zIbCqtiuz_F9VSP3WcJ4-27" value="&lt;div&gt;Download &lt;br&gt;&lt;/div&gt;&lt;div&gt;Aplikasi&lt;br&gt;&lt;/div&gt;" style="whiteSpace=wrap;html=1;rounded=1;" vertex="1" parent="1">
          <mxGeometry x="100" y="140" width="120" height="60" as="geometry" />
        </mxCell>
        <mxCell id="zIbCqtiuz_F9VSP3WcJ4-45" style="edgeStyle=orthogonalEdgeStyle;rounded=0;orthogonalLoop=1;jettySize=auto;html=1;exitX=1;exitY=0.5;exitDx=0;exitDy=0;entryX=0;entryY=0.5;entryDx=0;entryDy=0;" edge="1" parent="1" source="zIbCqtiuz_F9VSP3WcJ4-29">
          <mxGeometry relative="1" as="geometry">
            <mxPoint x="409.9999999999998" y="169.9999999999999" as="targetPoint" />
            <Array as="points">
              <mxPoint x="320" y="310" />
              <mxPoint x="320" y="170" />
            </Array>
          </mxGeometry>
        </mxCell>
        <mxCell id="zIbCqtiuz_F9VSP3WcJ4-29" value="&lt;div&gt;Registrasi&lt;/div&gt;&lt;div&gt;Deposit MInimal&lt;br&gt;&lt;/div&gt;" style="whiteSpace=wrap;html=1;rounded=1;" vertex="1" parent="1">
          <mxGeometry x="100" y="280" width="120" height="60" as="geometry" />
        </mxCell>
        <mxCell id="zIbCqtiuz_F9VSP3WcJ4-47" value="" style="edgeStyle=orthogonalEdgeStyle;rounded=0;orthogonalLoop=1;jettySize=auto;html=1;" edge="1" parent="1" target="zIbCqtiuz_F9VSP3WcJ4-46">
          <mxGeometry relative="1" as="geometry">
            <mxPoint x="469.9999999999998" y="199.9999999999999" as="sourcePoint" />
          </mxGeometry>
        </mxCell>
        <mxCell id="zIbCqtiuz_F9VSP3WcJ4-49" value="" style="edgeStyle=orthogonalEdgeStyle;rounded=0;orthogonalLoop=1;jettySize=auto;html=1;" edge="1" parent="1" source="zIbCqtiuz_F9VSP3WcJ4-46" target="zIbCqtiuz_F9VSP3WcJ4-48">
          <mxGeometry relative="1" as="geometry" />
        </mxCell>
        <mxCell id="zIbCqtiuz_F9VSP3WcJ4-60" value="" style="edgeStyle=orthogonalEdgeStyle;rounded=0;orthogonalLoop=1;jettySize=auto;html=1;" edge="1" parent="1" source="zIbCqtiuz_F9VSP3WcJ4-46" target="zIbCqtiuz_F9VSP3WcJ4-59">
          <mxGeometry relative="1" as="geometry" />
        </mxCell>
        <mxCell id="zIbCqtiuz_F9VSP3WcJ4-46" value="&lt;div&gt;Member /&lt;/div&gt;&lt;div&gt;Non Member&lt;br&gt;&lt;/div&gt;" style="rhombus;whiteSpace=wrap;html=1;rounded=1;" vertex="1" parent="1">
          <mxGeometry x="400" y="270" width="140" height="130" as="geometry" />
        </mxCell>
        <mxCell id="zIbCqtiuz_F9VSP3WcJ4-53" value="" style="edgeStyle=orthogonalEdgeStyle;rounded=0;orthogonalLoop=1;jettySize=auto;html=1;" edge="1" parent="1" source="zIbCqtiuz_F9VSP3WcJ4-48" target="zIbCqtiuz_F9VSP3WcJ4-52">
          <mxGeometry relative="1" as="geometry" />
        </mxCell>
        <mxCell id="zIbCqtiuz_F9VSP3WcJ4-48" value="Bayar" style="whiteSpace=wrap;html=1;rounded=1;" vertex="1" parent="1">
          <mxGeometry x="630" y="305" width="120" height="60" as="geometry" />
        </mxCell>
        <mxCell id="zIbCqtiuz_F9VSP3WcJ4-50" value="Non Member" style="text;html=1;strokeColor=none;fillColor=none;align=center;verticalAlign=middle;whiteSpace=wrap;rounded=0;" vertex="1" parent="1">
          <mxGeometry x="550" y="295" width="60" height="30" as="geometry" />
        </mxCell>
        <mxCell id="zIbCqtiuz_F9VSP3WcJ4-55" value="" style="edgeStyle=orthogonalEdgeStyle;rounded=0;orthogonalLoop=1;jettySize=auto;html=1;" edge="1" parent="1" source="zIbCqtiuz_F9VSP3WcJ4-52" target="zIbCqtiuz_F9VSP3WcJ4-54">
          <mxGeometry relative="1" as="geometry" />
        </mxCell>
        <mxCell id="zIbCqtiuz_F9VSP3WcJ4-52" value="Lampu Hidup" style="whiteSpace=wrap;html=1;rounded=1;" vertex="1" parent="1">
          <mxGeometry x="630" y="445" width="120" height="60" as="geometry" />
        </mxCell>
        <mxCell id="zIbCqtiuz_F9VSP3WcJ4-56" style="edgeStyle=orthogonalEdgeStyle;rounded=0;orthogonalLoop=1;jettySize=auto;html=1;entryX=1;entryY=0.5;entryDx=0;entryDy=0;" edge="1" parent="1" source="zIbCqtiuz_F9VSP3WcJ4-54" target="zIbCqtiuz_F9VSP3WcJ4-48">
          <mxGeometry relative="1" as="geometry">
            <Array as="points">
              <mxPoint x="840" y="640" />
              <mxPoint x="840" y="335" />
            </Array>
          </mxGeometry>
        </mxCell>
        <mxCell id="zIbCqtiuz_F9VSP3WcJ4-58" value="" style="edgeStyle=orthogonalEdgeStyle;rounded=0;orthogonalLoop=1;jettySize=auto;html=1;" edge="1" parent="1" source="zIbCqtiuz_F9VSP3WcJ4-54" target="zIbCqtiuz_F9VSP3WcJ4-57">
          <mxGeometry relative="1" as="geometry" />
        </mxCell>
        <mxCell id="zIbCqtiuz_F9VSP3WcJ4-63" style="edgeStyle=orthogonalEdgeStyle;rounded=0;orthogonalLoop=1;jettySize=auto;html=1;" edge="1" parent="1" source="zIbCqtiuz_F9VSP3WcJ4-54">
          <mxGeometry relative="1" as="geometry">
            <mxPoint x="469.9999999999998" y="510" as="targetPoint" />
          </mxGeometry>
        </mxCell>
        <mxCell id="zIbCqtiuz_F9VSP3WcJ4-54" value="&lt;div&gt;Waktu&lt;/div&gt;&lt;div&gt;Habis&lt;br&gt;&lt;/div&gt;" style="rhombus;whiteSpace=wrap;html=1;rounded=1;" vertex="1" parent="1">
          <mxGeometry x="630" y="575" width="120" height="125" as="geometry" />
        </mxCell>
        <mxCell id="zIbCqtiuz_F9VSP3WcJ4-57" value="&lt;div&gt;Selesai &lt;br&gt;&lt;/div&gt;&lt;div&gt;Cetak Struk&lt;br&gt;&lt;/div&gt;" style="whiteSpace=wrap;html=1;rounded=1;" vertex="1" parent="1">
          <mxGeometry x="630" y="770" width="120" height="60" as="geometry" />
        </mxCell>
        <mxCell id="zIbCqtiuz_F9VSP3WcJ4-61" style="edgeStyle=orthogonalEdgeStyle;rounded=0;orthogonalLoop=1;jettySize=auto;html=1;entryX=0;entryY=0.5;entryDx=0;entryDy=0;" edge="1" parent="1" source="zIbCqtiuz_F9VSP3WcJ4-59" target="zIbCqtiuz_F9VSP3WcJ4-52">
          <mxGeometry relative="1" as="geometry" />
        </mxCell>
        <mxCell id="zIbCqtiuz_F9VSP3WcJ4-59" value="Scan Barcode" style="whiteSpace=wrap;html=1;rounded=1;" vertex="1" parent="1">
          <mxGeometry x="410" y="445" width="120" height="60" as="geometry" />
        </mxCell>
        <mxCell id="zIbCqtiuz_F9VSP3WcJ4-64" value="Member" style="text;html=1;strokeColor=none;fillColor=none;align=center;verticalAlign=middle;whiteSpace=wrap;rounded=0;" vertex="1" parent="1">
          <mxGeometry x="550" y="610" width="60" height="30" as="geometry" />
        </mxCell>
        <mxCell id="zIbCqtiuz_F9VSP3WcJ4-65" value="Non Member" style="text;html=1;strokeColor=none;fillColor=none;align=center;verticalAlign=middle;whiteSpace=wrap;rounded=0;" vertex="1" parent="1">
          <mxGeometry x="770" y="610" width="60" height="30" as="geometry" />
        </mxCell>
        <mxCell id="zIbCqtiuz_F9VSP3WcJ4-66" value="Tidak" style="text;html=1;strokeColor=none;fillColor=none;align=center;verticalAlign=middle;whiteSpace=wrap;rounded=0;" vertex="1" parent="1">
          <mxGeometry x="700" y="710" width="60" height="30" as="geometry" />
        </mxCell>
        <mxCell id="zIbCqtiuz_F9VSP3WcJ4-67" value="Aplikasi POS" style="shape=process;whiteSpace=wrap;html=1;backgroundOutline=1;" vertex="1" parent="1">
          <mxGeometry x="410" y="140" width="120" height="60" as="geometry" />
        </mxCell>
      </root>
    </mxGraphModel>
  </diagram>
</mxfile>
